<svg width="32" height="33" viewBox="0 0 32 33" fill="none" xmlns="http://www.w3.org/2000/svg">
<g clip-path="url(#clip0_150_1332)">
<path d="M30 24.75C30 25.297 29.7893 25.8216 29.4142 26.2084C29.0391 26.5952 28.5304 26.8125 28 26.8125H4C3.46957 26.8125 2.96086 26.5952 2.58579 26.2084C2.21071 25.8216 2 25.297 2 24.75V12.375C2 11.828 2.21071 11.3034 2.58579 10.9166C2.96086 10.5298 3.46957 10.3125 4 10.3125H6.344C7.93448 10.3116 9.45953 9.65952 10.584 8.49956L12.244 6.79181C12.618 6.406 13.125 6.18871 13.654 6.1875H18.342C18.8724 6.18762 19.381 6.40499 19.756 6.79181L21.412 8.49956C21.9693 9.07441 22.6309 9.5304 23.3591 9.84147C24.0873 10.1525 24.8678 10.3126 25.656 10.3125H28C28.5304 10.3125 29.0391 10.5298 29.4142 10.9166C29.7893 11.3034 30 11.828 30 12.375V24.75ZM4 8.25C2.93913 8.25 1.92172 8.6846 1.17157 9.45818C0.421427 10.2318 0 11.281 0 12.375L0 24.75C0 25.844 0.421427 26.8932 1.17157 27.6668C1.92172 28.4404 2.93913 28.875 4 28.875H28C29.0609 28.875 30.0783 28.4404 30.8284 27.6668C31.5786 26.8932 32 25.844 32 24.75V12.375C32 11.281 31.5786 10.2318 30.8284 9.45818C30.0783 8.6846 29.0609 8.25 28 8.25H25.656C24.5952 8.24977 23.578 7.81502 22.828 7.04138L21.172 5.33362C20.422 4.55998 19.4048 4.12523 18.344 4.125H13.656C12.5952 4.12523 11.578 4.55998 10.828 5.33362L9.172 7.04138C8.42203 7.81502 7.40478 8.24977 6.344 8.25H4Z" fill="#8F9BB3"/>
<path d="M16 22.6875C14.6739 22.6875 13.4021 22.1443 12.4645 21.1773C11.5268 20.2103 11 18.8988 11 17.5312C11 16.1637 11.5268 14.8522 12.4645 13.8852C13.4021 12.9182 14.6739 12.375 16 12.375C17.3261 12.375 18.5979 12.9182 19.5355 13.8852C20.4732 14.8522 21 16.1637 21 17.5312C21 18.8988 20.4732 20.2103 19.5355 21.1773C18.5979 22.1443 17.3261 22.6875 16 22.6875ZM16 24.75C17.8565 24.75 19.637 23.9895 20.9497 22.6357C22.2625 21.2819 23 19.4458 23 17.5312C23 15.6167 22.2625 13.7806 20.9497 12.4268C19.637 11.073 17.8565 10.3125 16 10.3125C14.1435 10.3125 12.363 11.073 11.0503 12.4268C9.7375 13.7806 9 15.6167 9 17.5312C9 19.4458 9.7375 21.2819 11.0503 22.6357C12.363 23.9895 14.1435 24.75 16 24.75ZM6 13.4062C6 13.6798 5.89464 13.9421 5.70711 14.1355C5.51957 14.3289 5.26522 14.4375 5 14.4375C4.73478 14.4375 4.48043 14.3289 4.29289 14.1355C4.10536 13.9421 4 13.6798 4 13.4062C4 13.1327 4.10536 12.8704 4.29289 12.677C4.48043 12.4836 4.73478 12.375 5 12.375C5.26522 12.375 5.51957 12.4836 5.70711 12.677C5.89464 12.8704 6 13.1327 6 13.4062Z" fill="#8F9BB3"/>
</g>
<defs>
<clipPath id="clip0_150_1332">
<rect width="32" height="33" fill="white"/>
</clipPath>
</defs>
</svg>
