<svg width="19" height="23" viewBox="0 0 19 23" fill="none" xmlns="http://www.w3.org/2000/svg">
<path d="M16.2298 3.28665C15.819 3.28605 15.4133 3.38114 15.0426 3.5649V2.87596C15.0429 2.19077 14.8073 1.52801 14.3784 1.00712C13.9494 0.486235 13.3553 0.14147 12.7031 0.0349549C12.0509 -0.0715597 11.3835 0.0671809 10.8211 0.426175C10.2587 0.78517 9.8384 1.34081 9.63586 1.99297C9.21401 1.7555 8.73995 1.63585 8.26013 1.64573C7.78031 1.65561 7.3112 1.79469 6.89875 2.04933C6.48631 2.30398 6.14469 2.66546 5.90736 3.09835C5.67003 3.53124 5.54514 4.02069 5.54493 4.51874V11.0899L5.167 10.4605C4.79992 9.80304 4.19697 9.32316 3.48997 9.12573C2.78296 8.92829 2.02939 9.02936 1.39397 9.40684C0.758556 9.78431 0.292976 10.4075 0.0989983 11.1402C-0.0949791 11.8729 -0.00157661 12.6554 0.35879 13.3168C1.94174 16.7841 3.22096 19.2432 4.6842 20.7802C6.16228 22.3367 7.84021 23 10.2938 23C12.602 22.9973 14.8149 22.0445 16.4471 20.3506C18.0793 18.6568 18.9974 16.3602 19 13.9647V6.16152C19 5.39906 18.7081 4.66782 18.1886 4.12868C17.6691 3.58954 16.9645 3.28665 16.2298 3.28665ZM17.417 13.9647C17.415 15.9247 16.6638 17.8037 15.3284 19.1896C13.993 20.5755 12.1823 21.355 10.2938 21.3572C8.2775 21.3572 6.97849 20.8562 5.80908 19.6272C4.50018 18.2503 3.29516 15.9155 1.77553 12.5868C1.76663 12.5665 1.75672 12.5466 1.74585 12.5273C1.58842 12.2442 1.54578 11.9078 1.62732 11.5922C1.70887 11.2765 1.90791 11.0073 2.18067 10.844C2.45342 10.6806 2.77754 10.6363 3.08173 10.7209C3.38592 10.8056 3.64526 11.0121 3.80269 11.2952C3.80672 11.3034 3.81135 11.3113 3.81655 11.3188L5.66365 14.399C5.75439 14.551 5.89041 14.6681 6.05108 14.7325C6.21175 14.7969 6.38829 14.8052 6.55391 14.7561C6.71953 14.707 6.86518 14.6031 6.96877 14.4603C7.07236 14.3175 7.12822 14.1435 7.12788 13.9647V4.51874C7.12788 4.19197 7.25296 3.87858 7.4756 3.64752C7.69825 3.41646 8.00022 3.28665 8.31509 3.28665C8.62996 3.28665 8.93193 3.41646 9.15458 3.64752C9.37722 3.87858 9.5023 4.19197 9.5023 4.51874V10.6792C9.5023 10.897 9.58569 11.1059 9.73412 11.26C9.88255 11.414 10.0839 11.5005 10.2938 11.5005C10.5037 11.5005 10.705 11.414 10.8534 11.26C11.0019 11.1059 11.0853 10.897 11.0853 10.6792V2.87596C11.0853 2.54919 11.2103 2.23581 11.433 2.00475C11.6556 1.77368 11.9576 1.64388 12.2725 1.64388C12.5873 1.64388 12.8893 1.77368 13.1119 2.00475C13.3346 2.23581 13.4597 2.54919 13.4597 2.87596V10.6792C13.4597 10.897 13.5431 11.1059 13.6915 11.26C13.8399 11.414 14.0412 11.5005 14.2512 11.5005C14.4611 11.5005 14.6624 11.414 14.8108 11.26C14.9592 11.1059 15.0426 10.897 15.0426 10.6792V6.16152C15.0426 5.83475 15.1677 5.52136 15.3904 5.2903C15.613 5.05924 15.915 4.92943 16.2298 4.92943C16.5447 4.92943 16.8467 5.05924 17.0693 5.2903C17.292 5.52136 17.417 5.83475 17.417 6.16152V13.9647Z" fill="#8F9BB3"/>
</svg>
