<svg width="14" height="13" viewBox="0 0 14 13" fill="none" xmlns="http://www.w3.org/2000/svg">
<path d="M12.3667 0.8125C12.2111 0.325 11.7444 0 11.2778 0H2.72222C2.17778 0 1.78889 0.325 1.63333 0.8125L0 5.6875V12.1875C0 12.5938 0.388889 13 0.777778 13H1.55556C2.02222 13 2.33333 12.5938 2.33333 12.1875V11.375H11.6667V12.1875C11.6667 12.5938 12.0556 13 12.4444 13H13.2222C13.6111 13 14 12.5938 14 12.1875V5.6875L12.3667 0.8125ZM2.95556 1.625H10.9667L11.8222 4.0625H2.17778L2.95556 1.625ZM12.4444 9.75H1.55556V5.6875H12.4444V9.75ZM3.5 6.5C4.12222 6.5 4.66667 7.06875 4.66667 7.71875C4.66667 8.36875 4.12222 8.9375 3.5 8.9375C2.87778 8.9375 2.33333 8.36875 2.33333 7.71875C2.33333 7.06875 2.87778 6.5 3.5 6.5ZM10.5 6.5C11.1222 6.5 11.6667 7.06875 11.6667 7.71875C11.6667 8.36875 11.1222 8.9375 10.5 8.9375C9.87778 8.9375 9.33333 8.36875 9.33333 7.71875C9.33333 7.06875 9.87778 6.5 10.5 6.5Z" fill="#FF7A00"/>
</svg>
