<svg width="24" height="24" viewBox="0 0 24 24" fill="none" xmlns="http://www.w3.org/2000/svg">
<path d="M21 10V3L18.36 5.64C17.5272 4.80123 16.5362 4.13601 15.4445 3.68285C14.3528 3.22969 13.182 2.99759 12 3C10.22 3 8.47991 3.52784 6.99987 4.51678C5.51983 5.50571 4.36628 6.91132 3.68509 8.55585C3.0039 10.2004 2.82567 12.01 3.17294 13.7558C3.5202 15.5016 4.37737 17.1053 5.63604 18.364C6.89472 19.6226 8.49836 20.4798 10.2442 20.8271C11.99 21.1743 13.7996 20.9961 15.4442 20.3149C17.0887 19.6337 18.4943 18.4802 19.4832 17.0001C20.4722 15.5201 21 13.78 21 12H19C19 15.86 15.86 19 12 19C8.14 19 5 15.86 5 12C5 8.14 8.14 5 12 5C13.93 5 15.68 5.79 16.95 7.05L14 10H21Z" fill="#FF7A00"/>
<path d="M9.71778 16C9.52044 16 9.35156 15.9296 9.21111 15.7889C9.07037 15.6484 9 15.4796 9 15.2822V11.3844C9 11.1871 9.07037 11.0182 9.21111 10.8778C9.35156 10.737 9.52044 10.6667 9.71778 10.6667H10.3333V9.77778C10.3333 9.28267 10.5058 8.86252 10.8507 8.51733C11.1956 8.17215 11.6157 7.9997 12.1111 8C12.6062 8 13.0264 8.17244 13.3716 8.51733C13.7167 8.86222 13.8892 9.28237 13.8889 9.77778V10.6667H14.5044C14.7018 10.6667 14.8707 10.737 15.0111 10.8778C15.1519 11.0182 15.2222 11.1871 15.2222 11.3844V15.2822C15.2222 15.4796 15.1519 15.6484 15.0111 15.7889C14.8707 15.9296 14.7018 16 14.5044 16H9.71778ZM12.1111 14C12.2987 14 12.4566 13.9357 12.5849 13.8071C12.7135 13.6788 12.7778 13.5209 12.7778 13.3333C12.7778 13.1458 12.7135 12.9879 12.5849 12.8596C12.4566 12.731 12.2987 12.6667 12.1111 12.6667C11.9236 12.6667 11.7656 12.731 11.6373 12.8596C11.5087 12.9879 11.4444 13.1458 11.4444 13.3333C11.4444 13.5209 11.5087 13.6788 11.6373 13.8071C11.7656 13.9357 11.9236 14 12.1111 14ZM10.7778 10.6667H13.4444V9.77778C13.4444 9.40741 13.3148 9.09259 13.0556 8.83333C12.7963 8.57407 12.4815 8.44444 12.1111 8.44444C11.7407 8.44444 11.4259 8.57407 11.1667 8.83333C10.9074 9.09259 10.7778 9.40741 10.7778 9.77778V10.6667Z" fill="#FF7A00"/>
</svg>
