<svg width="22" height="21" viewBox="0 0 22 21" fill="none" xmlns="http://www.w3.org/2000/svg">
<path d="M11.2246 10.1522C12.3292 10.1522 13.2246 9.25675 13.2246 8.15218C13.2246 7.04761 12.3292 6.15218 11.2246 6.15218C10.1201 6.15218 9.22464 7.04761 9.22464 8.15218C9.22464 9.25675 10.1201 10.1522 11.2246 10.1522Z" stroke="#FF7A00" stroke-linecap="round" stroke-linejoin="round"/>
<path d="M4.22464 6.15218H5.22464V5.15218C5.22464 4.62174 5.43535 4.11304 5.81043 3.73796C6.1855 3.36289 6.69421 3.15218 7.22464 3.15218H15.2246C15.7551 3.15218 16.2638 3.36289 16.6389 3.73796C17.0139 4.11304 17.2246 4.62174 17.2246 5.15218V15.1522C17.2246 15.6826 17.0139 16.1913 16.6389 16.5664C16.2638 16.9415 15.7551 17.1522 15.2246 17.1522H7.22464C6.69421 17.1522 6.1855 16.9415 5.81043 16.5664C5.43535 16.1913 5.22464 15.6826 5.22464 15.1522V14.1522H4.22464M4.22464 10.1522H5.22464M4.22464 8.15218H5.22464M4.22464 12.1522H5.22464" stroke="#FF7A00" stroke-linecap="round" stroke-linejoin="round"/>
<path fill-rule="evenodd" clip-rule="evenodd" d="M14.2246 13.1522V12.1522C14.2246 11.6217 14.0139 11.113 13.6389 10.738C13.2638 10.3629 12.7551 10.1522 12.2246 10.1522H10.2246C9.69421 10.1522 9.1855 10.3629 8.81043 10.738C8.43535 11.113 8.22464 11.6217 8.22464 12.1522V13.1522C8.22464 13.4174 8.33 13.6717 8.51753 13.8593C8.70507 14.0468 8.95942 14.1522 9.22464 14.1522H13.2246C13.4899 14.1522 13.7442 14.0468 13.9317 13.8593C14.1193 13.6717 14.2246 13.4174 14.2246 13.1522Z" stroke="#FF7A00" stroke-linecap="round" stroke-linejoin="round"/>
</svg>
