<svg width="22" height="22" viewBox="0 0 22 22" fill="none" xmlns="http://www.w3.org/2000/svg">
<path d="M19.7156 14.6682C20.238 13.4722 20.526 12.1493 20.526 10.763C20.526 5.36893 16.157 1 10.763 1C5.36893 1 1 5.36893 1 10.763H10.763L10.7679 14.6682C10.7679 16.5573 12.2958 18.0852 14.1849 18.0852C16.074 18.0852 17.602 16.5573 17.602 14.6682H19.7156Z" stroke="#FF7A00" stroke-width="2" stroke-miterlimit="2" stroke-linecap="round" stroke-linejoin="round"/>
<path d="M14.18 15.6445C14.717 15.6445 15.1563 15.2051 15.1563 14.6682C15.1563 14.1312 14.717 13.6919 14.18 13.6919C13.6431 13.6919 13.2037 14.1312 13.2037 14.6682C13.2037 15.2051 13.6431 15.6445 14.18 15.6445Z" fill="#FF7A00"/>
<path d="M10.763 14.6682L1.97629 16.6208C3.06486 18.1682 4.14855 19.7303 5.88148 20.526L11.7393 17.1089" stroke="#FF7A00" stroke-width="2" stroke-miterlimit="2" stroke-linecap="round" stroke-linejoin="round"/>
</svg>
