<svg width="24" height="24" viewBox="0 0 24 24" fill="none" xmlns="http://www.w3.org/2000/svg">
<path d="M19 12.75H7.99999C7.80108 12.75 7.61031 12.671 7.46966 12.5303C7.32901 12.3897 7.24999 12.1989 7.24999 12C7.24999 11.8011 7.32901 11.6103 7.46966 11.4697C7.61031 11.329 7.80108 11.25 7.99999 11.25H19C19.1989 11.25 19.3897 11.329 19.5303 11.4697C19.671 11.6103 19.75 11.8011 19.75 12C19.75 12.1989 19.671 12.3897 19.5303 12.5303C19.3897 12.671 19.1989 12.75 19 12.75ZM19 8.25H7.99999C7.80108 8.25 7.61031 8.17099 7.46966 8.03033C7.32901 7.88968 7.24999 7.69892 7.24999 7.5C7.24999 7.30109 7.32901 7.11033 7.46966 6.96967C7.61031 6.82902 7.80108 6.75 7.99999 6.75H19C19.1989 6.75 19.3897 6.82902 19.5303 6.96967C19.671 7.11033 19.75 7.30109 19.75 7.5C19.75 7.69892 19.671 7.88968 19.5303 8.03033C19.3897 8.17099 19.1989 8.25 19 8.25ZM19 17.25H7.99999C7.80108 17.25 7.61031 17.171 7.46966 17.0303C7.32901 16.8897 7.24999 16.6989 7.24999 16.5C7.24999 16.3011 7.32901 16.1103 7.46966 15.9697C7.61031 15.829 7.80108 15.75 7.99999 15.75H19C19.1989 15.75 19.3897 15.829 19.5303 15.9697C19.671 16.1103 19.75 16.3011 19.75 16.5C19.75 16.6989 19.671 16.8897 19.5303 17.0303C19.3897 17.171 19.1989 17.25 19 17.25ZM4.99999 8.5C4.86998 8.5016 4.7409 8.47782 4.61999 8.43C4.50049 8.37202 4.38947 8.29801 4.28999 8.21C4.19731 8.11656 4.12398 8.00575 4.07422 7.88391C4.02445 7.76207 3.99923 7.63161 3.99999 7.5C4.00367 7.23524 4.10725 6.98164 4.28999 6.79C4.38386 6.6974 4.49635 6.62582 4.61999 6.58C4.86345 6.47999 5.13653 6.47999 5.37999 6.58C5.50274 6.6276 5.61488 6.69896 5.70999 6.79C5.89272 6.98164 5.99631 7.23524 5.99999 7.5C6.00075 7.63161 5.97552 7.76207 5.92576 7.88391C5.876 8.00575 5.80267 8.11656 5.70999 8.21C5.61051 8.29801 5.49948 8.37202 5.37999 8.43C5.25908 8.47782 5.13 8.5016 4.99999 8.5ZM4.99999 13C4.86931 12.9984 4.74021 12.9712 4.61999 12.92C4.4988 12.8694 4.38719 12.7983 4.28999 12.71C4.19731 12.6166 4.12398 12.5057 4.07422 12.3839C4.02445 12.2621 3.99923 12.1316 3.99999 12C4.00367 11.7352 4.10725 11.4816 4.28999 11.29C4.38719 11.2017 4.4988 11.1306 4.61999 11.08C4.80101 10.9961 5.003 10.9682 5.19999 11L5.37999 11.06L5.55999 11.15C5.61238 11.1869 5.66247 11.227 5.70999 11.27C5.89746 11.4667 6.00141 11.7283 5.99999 12C5.99999 12.2652 5.89463 12.5196 5.7071 12.7071C5.51956 12.8946 5.26521 13 4.99999 13ZM4.99999 17.5C4.86998 17.5016 4.7409 17.4778 4.61999 17.43C4.50049 17.372 4.38947 17.298 4.28999 17.21C4.20166 17.1128 4.13063 17.0012 4.07999 16.88C4.02708 16.7603 3.99976 16.6309 3.99976 16.5C3.99976 16.3691 4.02708 16.2397 4.07999 16.12C4.13063 15.9988 4.20166 15.8872 4.28999 15.79C4.43061 15.6512 4.60919 15.5572 4.80317 15.5199C4.99716 15.4825 5.19788 15.5034 5.37999 15.58C5.50274 15.6276 5.61488 15.699 5.70999 15.79C5.79832 15.8872 5.86935 15.9988 5.91999 16.12C5.97289 16.2397 6.00022 16.3691 6.00022 16.5C6.00022 16.6309 5.97289 16.7603 5.91999 16.88C5.86935 17.0012 5.79832 17.1128 5.70999 17.21C5.61655 17.3027 5.50573 17.376 5.38389 17.4258C5.26206 17.4755 5.1316 17.5008 4.99999 17.5Z" fill="#FF7A00"/>
</svg>
