<svg width="25" height="27" viewBox="0 0 25 27" fill="none" xmlns="http://www.w3.org/2000/svg">
<path d="M7.125 8.35201H6.125C5.59457 8.35201 5.08586 8.569 4.71079 8.95525C4.33571 9.3415 4.125 9.86537 4.125 10.4116V19.6799C4.125 20.2261 4.33571 20.75 4.71079 21.1362C5.08586 21.5225 5.59457 21.7395 6.125 21.7395H15.125C15.6554 21.7395 16.1641 21.5225 16.5392 21.1362C16.9143 20.75 17.125 20.2261 17.125 19.6799V18.65" stroke="white" stroke-width="2" stroke-linecap="round" stroke-linejoin="round"/>
<path d="M16.125 6.29219L19.125 9.3816M20.51 7.92443C20.9038 7.51884 21.1251 6.96875 21.1251 6.39517C21.1251 5.82158 20.9038 5.27149 20.51 4.86591C20.1162 4.46032 19.582 4.23247 19.025 4.23247C18.468 4.23247 17.9338 4.46032 17.54 4.86591L9.125 13.5008V16.5902H12.125L20.51 7.92443Z" stroke="white" stroke-width="2" stroke-linecap="round" stroke-linejoin="round"/>
</svg>
