<svg width="19" height="19" viewBox="0 0 19 19" fill="none" xmlns="http://www.w3.org/2000/svg">
<path d="M14.2268 11.1412C14.2268 11.9325 14.452 12.2481 15.0407 12.2481C16.353 12.2481 17.1885 10.576 17.1885 7.79513C17.1885 3.54469 14.0912 1.50991 10.2241 1.50991C6.24594 1.50991 2.62761 4.17774 2.62761 9.21948C2.62761 14.0351 5.79282 16.6577 10.6537 16.6577C12.3041 16.6577 13.412 16.4769 15.1067 15.9117L15.4703 17.4255C13.7972 17.969 12.0093 18.1264 10.6311 18.1264C4.25543 18.1264 0.840576 14.622 0.840576 9.21853C0.840576 3.76984 4.79804 0.0620117 10.2467 0.0620117C15.9215 0.0620117 18.9275 3.45332 18.9275 7.61332C18.9275 11.1403 17.8207 13.8307 14.3389 13.8307C12.7554 13.8307 11.7163 13.1977 11.5806 11.795C11.1737 13.355 10.0885 13.8307 8.61797 13.8307C6.65101 13.8307 5.00058 12.315 5.00058 9.26375C5.00058 6.18897 6.44847 4.28984 9.04848 4.28984C10.4276 4.28984 11.2867 4.83245 11.6692 5.69158L12.3258 4.49332H14.2249V11.1412H14.2268ZM11.4469 8.15687C11.4469 6.91433 10.519 6.39339 9.75029 6.39339C8.91376 6.39339 7.98775 7.07071 7.98775 9.06121C7.98775 10.6438 8.68862 11.5256 9.75029 11.5256C10.4964 11.5256 11.4469 11.0508 11.4469 9.73948V8.15687Z" fill="#FF7A00"/>
</svg>
