<svg width="11" height="10" viewBox="0 0 11 10" fill="none" xmlns="http://www.w3.org/2000/svg">
<path fill-rule="evenodd" clip-rule="evenodd" d="M10.0466 0C10.181 0 10.31 0.0532705 10.4051 0.148092C10.5002 0.242914 10.5536 0.37152 10.5536 0.505618V5C10.5536 5.1341 10.5002 5.2627 10.4051 5.35753C10.31 5.45235 10.181 5.50562 10.0466 5.50562C9.91207 5.50562 9.7831 5.45235 9.688 5.35753C9.5929 5.2627 9.53948 5.1341 9.53948 5V1.72584L2.2555 8.98876H5.53915C5.67364 8.98876 5.80262 9.04204 5.89771 9.13686C5.99281 9.23168 6.04623 9.36028 6.04623 9.49438C6.04623 9.62848 5.99281 9.75709 5.89771 9.85191C5.80262 9.94673 5.67364 10 5.53915 10H1.03174C0.897255 10 0.768276 9.94673 0.67318 9.85191C0.578083 9.75709 0.524658 9.62848 0.524658 9.49438V5C0.524658 4.9336 0.537774 4.86785 0.563258 4.80651C0.588741 4.74516 0.626093 4.68942 0.67318 4.64247C0.720267 4.59552 0.776167 4.55828 0.837689 4.53287C0.899211 4.50746 0.965151 4.49438 1.03174 4.49438C1.09833 4.49438 1.16427 4.50746 1.22579 4.53287C1.28732 4.55828 1.34322 4.59552 1.3903 4.64247C1.43739 4.68942 1.47474 4.74516 1.50023 4.80651C1.52571 4.86785 1.53883 4.9336 1.53883 5V8.27416L8.8228 1.01124H5.53915C5.40466 1.01124 5.27569 0.957966 5.18059 0.863144C5.08549 0.768322 5.03207 0.639716 5.03207 0.505618C5.03207 0.37152 5.08549 0.242914 5.18059 0.148092C5.27569 0.0532705 5.40466 0 5.53915 0H10.0466Z" fill="#FF7A00"/>
</svg>
