<svg width="27" height="28" viewBox="0 0 27 28" fill="none" xmlns="http://www.w3.org/2000/svg">
<path d="M18.5 11.0872C19.8807 11.0872 21 9.95816 21 8.5654C21 7.17265 19.8807 6.0436 18.5 6.0436C17.1193 6.0436 16 7.17265 16 8.5654C16 9.95816 17.1193 11.0872 18.5 11.0872Z" stroke="#626A7E" stroke-width="2"/>
<path d="M1 14.2394L3.19 12.3065C3.73892 11.8224 4.44968 11.5667 5.1784 11.5913C5.90712 11.6159 6.59937 11.9189 7.115 12.4389L12.4775 17.8481C12.8936 18.2678 13.4432 18.526 14.0294 18.5772C14.6157 18.6284 15.2011 18.4693 15.6825 18.1281L16.0563 17.8633C16.7507 17.3712 17.5902 17.1314 18.4373 17.1829C19.2844 17.2345 20.0892 17.5743 20.72 18.147L24.75 21.8048" stroke="#626A7E" stroke-width="2" stroke-linecap="round"/>
<path d="M26 13.609C26 19.5529 26 22.5248 24.1687 24.3708C22.34 26.218 19.3925 26.218 13.5 26.218C7.6075 26.218 4.66125 26.218 2.83 24.3708C1 22.5261 1 19.5529 1 13.609C1 7.66512 1 4.69318 2.83 2.84596C4.6625 1 7.6075 1 13.5 1C19.3925 1 22.3387 1 24.1687 2.84596C25.3862 4.07408 25.7937 5.80025 25.9312 8.56541" stroke="#626A7E" stroke-width="2" stroke-linecap="round"/>
</svg>
