<svg width="13" height="13" viewBox="0 0 13 13" fill="none" xmlns="http://www.w3.org/2000/svg">
<path d="M3.64 5.2C3.64 4.99313 3.72218 4.79473 3.86846 4.64845C4.01473 4.50218 4.21313 4.42 4.42 4.42H8.58C8.78687 4.42 8.98526 4.50218 9.13154 4.64845C9.27782 4.79473 9.36 4.99313 9.36 5.2C9.36 5.40687 9.27782 5.60526 9.13154 5.75154C8.98526 5.89782 8.78687 5.98 8.58 5.98H4.42C4.21313 5.98 4.01473 5.89782 3.86846 5.75154C3.72218 5.60526 3.64 5.40687 3.64 5.2ZM5.72 7.02H4.42C4.21313 7.02 4.01473 7.10218 3.86846 7.24845C3.72218 7.39473 3.64 7.59313 3.64 7.8C3.64 8.00687 3.72218 8.20526 3.86846 8.35154C4.01473 8.49782 4.21313 8.58 4.42 8.58H5.72C5.92687 8.58 6.12526 8.49782 6.27154 8.35154C6.41782 8.20526 6.5 8.00687 6.5 7.8C6.5 7.59313 6.41782 7.39473 6.27154 7.24845C6.12526 7.10218 5.92687 7.02 5.72 7.02ZM13 1.3V8.36485C13.0005 8.53563 12.967 8.7048 12.9016 8.86257C12.8363 9.02033 12.7402 9.16356 12.6191 9.28395L9.28395 12.6191C9.16356 12.7402 9.02033 12.8363 8.86257 12.9016C8.7048 12.967 8.53563 13.0005 8.36485 13H1.3C0.955218 13 0.624558 12.863 0.380761 12.6192C0.136964 12.3754 0 12.0448 0 11.7V1.3C0 0.955218 0.136964 0.624558 0.380761 0.380761C0.624558 0.136964 0.955218 0 1.3 0H11.7C12.0448 0 12.3754 0.136964 12.6192 0.380761C12.863 0.624558 13 0.955218 13 1.3ZM1.56 11.44H7.54V8.32C7.54 8.11313 7.62218 7.91473 7.76845 7.76845C7.91473 7.62218 8.11313 7.54 8.32 7.54H11.44V1.56H1.56V11.44ZM10.595 9.1H9.1V10.595L10.595 9.1Z" fill="#FF7A00"/>
</svg>
