<svg width="24" height="24" viewBox="0 0 24 24" fill="none" xmlns="http://www.w3.org/2000/svg">
<g clip-path="url(#clip0_232_2319)">
<path d="M20 2H9.33334V5.33333H10.6667V3.33333H20C20.4 3.33333 20.6667 3.6 20.6667 4V11.3333C20.6667 11.7333 20.4 12 20 12H11.3333V16.6667H7.80001L5.33334 18.6V16.6667H3.33334C2.93334 16.6667 2.66668 16.4 2.66668 16V8.66667C2.66668 8.26667 2.93334 8 3.33334 8H12V6.66667H3.33334C2.20001 6.66667 1.33334 7.53333 1.33334 8.66667V16C1.33334 17.1333 2.20001 18 3.33334 18H4.00001V21.4L8.20001 18H12.6667V13.3333H20C21.1333 13.3333 22 12.4667 22 11.3333V4C22 2.86667 21.1333 2 20 2Z" fill="#FF7A00"/>
<path d="M4.13333 15.2667H5.73333L6.13333 14.2H8.2L8.6 15.2667H10.2L7.93333 9.33333H6.33333L4.13333 15.2667ZM7.13333 11L7.8 13.0667H6.46666L7.13333 11Z" fill="#FF7A00"/>
<path d="M13.3333 11.3333C14.0667 11.3333 15.0667 11.1333 16 10.6667C16.9333 11.1333 18 11.3333 18.6667 11.3333V10C18.6667 10 18 10 17.2667 9.73333C18.0667 8.93333 18.6667 7.73333 18.6667 6V5.33333H16.6667V4H15.3333V5.33333H13.3333V6.66667H17.2667C17.1333 7.86667 16.6 8.6 16 9.06667C15.6 8.73333 15.2 8.26667 14.9333 7.66667H13.5333C13.8 8.53333 14.2 9.2 14.7333 9.73333C14.0667 10 13.4667 10 13.3333 10V11.3333Z" fill="#FF7A00"/>
</g>
<defs>
<clipPath id="clip0_232_2319">
<rect width="24" height="24" fill="white"/>
</clipPath>
</defs>
</svg>
