<svg width="18" height="21" viewBox="0 0 18 21" fill="none" xmlns="http://www.w3.org/2000/svg">
<path d="M9.35213 10.7976C9.02431 10.7988 8.70599 10.9078 8.44609 11.1076C8.18619 11.3074 7.99911 11.587 7.91361 11.9035C7.8281 12.2199 7.8489 12.5557 7.97282 12.8592C8.09674 13.1627 8.3169 13.4171 8.59947 13.5833V15.7174H10.1231V13.5833C10.3467 13.4511 10.5322 13.2632 10.6617 13.0381C10.7912 12.8129 10.8602 12.558 10.862 12.2983V12.2983C10.862 12.1004 10.8229 11.9045 10.7469 11.7219C10.6709 11.5392 10.5596 11.3733 10.4192 11.2339C10.2789 11.0944 10.1124 10.984 9.92925 10.9092C9.74612 10.8343 9.54998 10.7964 9.35213 10.7976V10.7976Z" stroke="#FF7A00" stroke-width="0.942029" stroke-linecap="round" stroke-linejoin="round"/>
<path d="M14.9925 7.35095H3.70722C2.61225 7.35095 1.72461 8.2386 1.72461 9.33356V17.1768C1.72461 18.2718 2.61225 19.1594 3.70722 19.1594H14.9925C16.0874 19.1594 16.9751 18.2718 16.9751 17.1768V9.33356C16.9751 8.2386 16.0874 7.35095 14.9925 7.35095Z" stroke="#FF7A00" stroke-width="1.88406" stroke-linecap="round" stroke-linejoin="round"/>
<path d="M4.46448 7.35096V6.15313C4.46448 4.85562 4.97991 3.61126 5.89739 2.69378C6.81487 1.7763 8.05924 1.26086 9.35675 1.26086C10.6543 1.26086 11.8986 1.7763 12.8161 2.69378C13.7336 3.61126 14.249 4.85562 14.249 6.15313V7.35096" stroke="#FF7A00" stroke-width="1.88406" stroke-linecap="round" stroke-linejoin="round"/>
</svg>
