<svg width="55" height="40" viewBox="0 0 55 40" fill="none" xmlns="http://www.w3.org/2000/svg">
<path d="M14.5961 12.0769L27.1923 20.8942L39.7884 12.0769" stroke="#FF7A00" stroke-width="3.5" stroke-linecap="round" stroke-linejoin="round"/>
<path d="M2 32.2308V7.03846C2 5.70218 2.53084 4.42063 3.47573 3.47573C4.42063 2.53084 5.70218 2 7.03846 2H47.3462C48.6824 2 49.964 2.53084 50.9089 3.47573C51.8538 4.42063 52.3846 5.70218 52.3846 7.03846V32.2308C52.3846 33.5671 51.8538 34.8486 50.9089 35.7935C49.964 36.7384 48.6824 37.2692 47.3462 37.2692H7.03846C5.70218 37.2692 4.42063 36.7384 3.47573 35.7935C2.53084 34.8486 2 33.5671 2 32.2308Z" stroke="#FF7A00" stroke-width="3.5"/>
</svg>
