<svg width="24" height="24" viewBox="0 0 24 24" fill="none" xmlns="http://www.w3.org/2000/svg">
<path d="M12.5 17.32C13.31 16.8667 14.1277 16.54 14.953 16.34C15.7777 16.1387 16.6267 16.038 17.5 16.038C18.1 16.038 18.7163 16.0947 19.349 16.208C19.9823 16.3207 20.5327 16.477 21 16.677V6.68001C20.54 6.42067 20.0077 6.23601 19.403 6.12601C18.7983 6.01601 18.164 5.96101 17.5 5.96101C16.6267 5.96101 15.7557 6.08967 14.887 6.34701C14.0177 6.60501 13.222 6.99167 12.5 7.50701V17.32ZM12 18.77C11.1867 18.2133 10.3133 17.7857 9.38 17.487C8.44667 17.1877 7.48667 17.038 6.5 17.038C5.68067 17.038 4.874 17.1537 4.08 17.385C3.28667 17.6157 2.59333 17.9207 2 18.3V6.07001C2.56667 5.72334 3.24667 5.45201 4.04 5.25601C4.83267 5.06001 5.65267 4.96201 6.5 4.96201C7.48 4.96201 8.43533 5.10301 9.366 5.38501C10.2973 5.66701 11.1753 6.07701 12 6.61501C12.8247 6.07701 13.7027 5.66701 14.634 5.38501C15.5653 5.10301 16.5207 4.96201 17.5 4.96201C18.3473 4.96201 19.1643 5.06001 19.951 5.25601C20.7377 5.45201 21.4207 5.72301 22 6.06901V18.3C21.41 17.92 20.7173 17.615 19.922 17.385C19.1267 17.1537 18.3193 17.038 17.5 17.038C16.5133 17.038 15.5533 17.1877 14.62 17.487C13.6867 17.7857 12.8133 18.213 12 18.769M13.885 9.59201V8.66201C14.4217 8.39001 14.997 8.18601 15.611 8.05001C16.225 7.91401 16.8547 7.84601 17.5 7.84601C17.8693 7.84601 18.2237 7.86967 18.563 7.91701C18.903 7.96434 19.2537 8.03167 19.615 8.11901V9.02701C19.2663 8.91567 18.9263 8.83834 18.595 8.79501C18.2637 8.75234 17.8987 8.73101 17.5 8.73101C16.8533 8.73101 16.2227 8.80367 15.608 8.94901C14.9927 9.09434 14.4183 9.30867 13.885 9.59201ZM13.885 15.054V14.084C14.3963 13.8127 14.9683 13.6093 15.601 13.474C16.2337 13.3373 16.8667 13.269 17.5 13.269C17.8693 13.269 18.2237 13.2927 18.563 13.34C18.903 13.388 19.2537 13.4553 19.615 13.542V14.45C19.2663 14.3387 18.9263 14.2613 18.595 14.218C18.2637 14.1753 17.8987 14.154 17.5 14.154C16.8533 14.154 16.2227 14.232 15.608 14.388C14.9927 14.5447 14.4183 14.7667 13.885 15.054ZM13.885 12.342V11.373C14.4217 11.101 14.997 10.8973 15.611 10.762C16.2243 10.626 16.854 10.558 17.5 10.558C17.8693 10.558 18.2237 10.5813 18.563 10.628C18.903 10.676 19.2537 10.7437 19.615 10.831V11.738C19.2663 11.6267 18.9263 11.5497 18.595 11.507C18.2637 11.4637 17.8987 11.442 17.5 11.442C16.8533 11.442 16.2227 11.5213 15.608 11.68C14.9927 11.838 14.4183 12.0587 13.885 12.342Z" fill="black"/>
</svg>
