<svg width="15" height="19" viewBox="0 0 15 19" fill="none" xmlns="http://www.w3.org/2000/svg">
<path d="M7.5 12C6.60714 12 5.84821 11.7083 5.22321 11.125C4.59821 10.5417 4.28571 9.83333 4.28571 9V3C4.28571 2.16667 4.59821 1.45833 5.22321 0.875C5.84821 0.291667 6.60714 0 7.5 0C8.39286 0 9.15179 0.291667 9.77679 0.875C10.4018 1.45833 10.7143 2.16667 10.7143 3V9C10.7143 9.83333 10.4018 10.5417 9.77679 11.125C9.15179 11.7083 8.39286 12 7.5 12ZM6.42857 19V15.925C4.57143 15.6917 3.03571 14.9167 1.82143 13.6C0.607143 12.2833 0 10.75 0 9H2.14286C2.14286 10.3833 2.66536 11.5627 3.71036 12.538C4.75536 13.5133 6.01857 14.0007 7.5 14C8.98214 14 10.2457 13.5123 11.2907 12.537C12.3357 11.5617 12.8579 10.3827 12.8571 9H15C15 10.75 14.3929 12.2833 13.1786 13.6C11.9643 14.9167 10.4286 15.6917 8.57143 15.925V19H6.42857Z" fill="white"/>
</svg>
