<svg width="36" height="57" viewBox="0 0 36 57" fill="none" xmlns="http://www.w3.org/2000/svg">
<path d="M28.7731 3.52692C29.7085 3.52692 30.6055 3.89851 31.267 4.55993C31.9284 5.22136 32.3 6.11845 32.3 7.05385V49.3769C32.3 50.3123 31.9284 51.2094 31.267 51.8708C30.6055 52.5323 29.7085 52.9038 28.7731 52.9038H7.61152C6.67613 52.9038 5.77904 52.5323 5.11761 51.8708C4.45619 51.2094 4.0846 50.3123 4.0846 49.3769V7.05385C4.0846 6.11845 4.45619 5.22136 5.11761 4.55993C5.77904 3.89851 6.67613 3.52692 7.61152 3.52692H28.7731ZM7.61152 0C5.74073 0 3.94655 0.743171 2.6237 2.06602C1.30085 3.38888 0.557678 5.18305 0.557678 7.05385V49.3769C0.557678 51.2477 1.30085 53.0419 2.6237 54.3647C3.94655 55.6876 5.74073 56.4308 7.61152 56.4308H28.7731C30.6439 56.4308 32.438 55.6876 33.7609 54.3647C35.0837 53.0419 35.8269 51.2477 35.8269 49.3769V7.05385C35.8269 5.18305 35.0837 3.38888 33.7609 2.06602C32.438 0.743171 30.6439 0 28.7731 0L7.61152 0Z" fill="#FF7A00"/>
<path d="M18.1922 49.3768C19.1276 49.3768 20.0247 49.0053 20.6861 48.3438C21.3475 47.6824 21.7191 46.7853 21.7191 45.8499C21.7191 44.9145 21.3475 44.0174 20.6861 43.356C20.0247 42.6946 19.1276 42.323 18.1922 42.323C17.2568 42.323 16.3597 42.6946 15.6983 43.356C15.0369 44.0174 14.6653 44.9145 14.6653 45.8499C14.6653 46.7853 15.0369 47.6824 15.6983 48.3438C16.3597 49.0053 17.2568 49.3768 18.1922 49.3768Z" fill="#FF7A00"/>
</svg>
