<svg width="17" height="19" viewBox="0 0 17 19" fill="none" xmlns="http://www.w3.org/2000/svg">
<path d="M8.26082 8.64493C9.06341 8.64493 9.84798 8.40694 10.5153 7.96104C11.1826 7.51515 11.7028 6.88138 12.0099 6.13988C12.317 5.39839 12.3974 4.58247 12.2408 3.7953C12.0842 3.00813 11.6978 2.28507 11.1302 1.71755C10.5627 1.15004 9.83966 0.763555 9.05249 0.606978C8.26533 0.4504 7.4494 0.530761 6.70791 0.837899C5.96641 1.14504 5.33265 1.66516 4.88675 2.33248C4.44086 2.99981 4.20286 3.78438 4.20286 4.58697C4.20286 5.66321 4.63039 6.69537 5.39141 7.45638C6.15243 8.2174 7.18459 8.64493 8.26082 8.64493ZM8.26082 1.68842C8.8341 1.68842 9.39451 1.85842 9.87117 2.17692C10.3478 2.49541 10.7193 2.9481 10.9387 3.47774C11.1581 4.00738 11.2155 4.59018 11.1037 5.15245C10.9918 5.71471 10.7158 6.23118 10.3104 6.63655C9.90504 7.04192 9.38857 7.31798 8.8263 7.42982C8.26404 7.54166 7.68124 7.48426 7.1516 7.26487C6.62196 7.04549 6.16927 6.67398 5.85077 6.19731C5.53228 5.72065 5.36228 5.16025 5.36228 4.58697C5.36228 3.81823 5.66766 3.08097 6.21124 2.53739C6.75483 1.9938 7.49208 1.68842 8.26082 1.68842Z" fill="#FF7A00"/>
<path d="M15.4898 12.9174C14.5601 11.9348 13.4398 11.1521 12.1974 10.6172C10.9549 10.0823 9.61643 9.80645 8.26373 9.80645C6.91103 9.80645 5.57254 10.0823 4.33009 10.6172C3.08764 11.1521 1.96733 11.9348 1.03765 12.9174C0.836096 13.1327 0.724153 13.4167 0.724611 13.7116V16.7609C0.724611 17.0684 0.846763 17.3633 1.0642 17.5807C1.28163 17.7981 1.57653 17.9203 1.88403 17.9203H14.6376C14.9451 17.9203 15.24 17.7981 15.4575 17.5807C15.6749 17.3633 15.797 17.0684 15.797 16.7609V13.7116C15.7991 13.4175 15.6892 13.1336 15.4898 12.9174ZM14.6376 16.7609H1.88403V13.7058C2.70561 12.8407 3.69463 12.1518 4.7909 11.681C5.88717 11.2103 7.06776 10.9675 8.26083 10.9675C9.4539 10.9675 10.6345 11.2103 11.7308 11.681C12.827 12.1518 13.816 12.8407 14.6376 13.7058V16.7609Z" fill="#FF7A00"/>
<path d="M8.26082 8.64493C9.06341 8.64493 9.84798 8.40694 10.5153 7.96104C11.1826 7.51515 11.7028 6.88138 12.0099 6.13988C12.317 5.39839 12.3974 4.58247 12.2408 3.7953C12.0842 3.00813 11.6978 2.28507 11.1302 1.71755C10.5627 1.15004 9.83966 0.763555 9.05249 0.606978C8.26533 0.4504 7.4494 0.530761 6.70791 0.837899C5.96641 1.14504 5.33265 1.66516 4.88675 2.33248C4.44086 2.99981 4.20286 3.78438 4.20286 4.58697C4.20286 5.66321 4.63039 6.69537 5.39141 7.45638C6.15243 8.2174 7.18459 8.64493 8.26082 8.64493ZM8.26082 1.68842C8.8341 1.68842 9.39451 1.85842 9.87117 2.17692C10.3478 2.49541 10.7193 2.9481 10.9387 3.47774C11.1581 4.00738 11.2155 4.59018 11.1037 5.15245C10.9918 5.71471 10.7158 6.23118 10.3104 6.63655C9.90504 7.04192 9.38857 7.31798 8.8263 7.42982C8.26404 7.54166 7.68124 7.48426 7.1516 7.26487C6.62196 7.04549 6.16927 6.67398 5.85077 6.19731C5.53228 5.72065 5.36228 5.16025 5.36228 4.58697C5.36228 3.81823 5.66766 3.08097 6.21124 2.53739C6.75483 1.9938 7.49208 1.68842 8.26082 1.68842Z" stroke="#FF7A00" stroke-width="0.565217"/>
<path d="M15.4898 12.9174C14.5601 11.9348 13.4398 11.1521 12.1974 10.6172C10.9549 10.0823 9.61643 9.80645 8.26373 9.80645C6.91103 9.80645 5.57254 10.0823 4.33009 10.6172C3.08764 11.1521 1.96733 11.9348 1.03765 12.9174C0.836096 13.1327 0.724153 13.4167 0.724611 13.7116V16.7609C0.724611 17.0684 0.846763 17.3633 1.0642 17.5807C1.28163 17.7981 1.57653 17.9203 1.88403 17.9203H14.6376C14.9451 17.9203 15.24 17.7981 15.4575 17.5807C15.6749 17.3633 15.797 17.0684 15.797 16.7609V13.7116C15.7991 13.4175 15.6892 13.1336 15.4898 12.9174ZM14.6376 16.7609H1.88403V13.7058C2.70561 12.8407 3.69463 12.1518 4.7909 11.681C5.88717 11.2103 7.06776 10.9675 8.26083 10.9675C9.4539 10.9675 10.6345 11.2103 11.7308 11.681C12.827 12.1518 13.816 12.8407 14.6376 13.7058V16.7609Z" stroke="#FF7A00" stroke-width="0.565217"/>
</svg>
