<svg width="17" height="17" viewBox="0 0 17 17" fill="none" xmlns="http://www.w3.org/2000/svg">
<path d="M3.87128 2.4517C3.92461 3.24281 4.05794 4.01614 4.27128 4.75392L3.20461 5.82059C2.84016 4.75392 2.60905 3.62503 2.52905 2.4517H3.87128ZM12.6357 13.1361C13.3913 13.3495 14.1646 13.4828 14.9468 13.5361V14.8606C13.7735 14.7806 12.6446 14.5495 11.5691 14.1939L12.6357 13.1361ZM4.72461 0.67392H1.6135C1.12461 0.67392 0.724609 1.07392 0.724609 1.56281C0.724609 9.90948 7.48905 16.6739 15.8357 16.6739C16.3246 16.6739 16.7246 16.2739 16.7246 15.785V12.6828C16.7246 12.1939 16.3246 11.7939 15.8357 11.7939C14.7335 11.7939 13.6579 11.6161 12.6624 11.2873C12.5741 11.2552 12.4807 11.2402 12.3868 11.2428C12.1557 11.2428 11.9335 11.3317 11.7557 11.5006L9.80017 13.4561C7.28054 12.1676 5.23093 10.118 3.94239 7.59836L5.89794 5.64281C6.14683 5.39392 6.21794 5.04725 6.12016 4.73614C5.78297 3.71219 5.61191 2.64085 5.6135 1.56281C5.6135 1.07392 5.2135 0.67392 4.72461 0.67392Z" fill="#FF7A00"/>
</svg>
