<svg width="24" height="24" viewBox="0 0 24 24" fill="none" xmlns="http://www.w3.org/2000/svg">
<path d="M17.54 19.25H8.10002L10.1 16.43C10.1892 16.3042 10.2381 16.1542 10.24 16V12.75H13.49C13.6889 12.75 13.8797 12.671 14.0204 12.5303C14.161 12.3897 14.24 12.1989 14.24 12C14.24 11.8011 14.161 11.6103 14.0204 11.4697C13.8797 11.329 13.6889 11.25 13.49 11.25H10.21V8C10.1878 7.57413 10.2539 7.14827 10.4043 6.74922C10.5547 6.35017 10.786 5.98656 11.0838 5.68128C11.3816 5.37601 11.7393 5.13567 12.1345 4.97539C12.5297 4.81512 12.9537 4.73838 13.38 4.75C13.8318 4.72084 14.2845 4.78973 14.7072 4.95192C15.1298 5.11411 15.5124 5.36578 15.8287 5.68967C16.145 6.01356 16.3875 6.40202 16.5397 6.82841C16.6918 7.2548 16.7499 7.70904 16.71 8.16V9.16C16.71 9.35891 16.789 9.54967 16.9297 9.69033C17.0703 9.83098 17.2611 9.91 17.46 9.91C17.6589 9.91 17.8497 9.83098 17.9904 9.69033C18.131 9.54967 18.21 9.35891 18.21 9.16V8.16C18.2516 7.51126 18.1557 6.86106 17.9288 6.25189C17.7018 5.64273 17.3489 5.08832 16.893 4.62489C16.4371 4.16146 15.8886 3.79946 15.2832 3.56254C14.6779 3.32562 14.0294 3.21912 13.38 3.25C12.7561 3.23585 12.1358 3.34966 11.5575 3.5844C10.9793 3.81915 10.4552 4.16985 10.0176 4.6149C9.58007 5.05995 9.23832 5.58991 9.01343 6.1721C8.78854 6.75429 8.68528 7.37637 8.71002 8V11.25H6.46002C6.26111 11.25 6.07034 11.329 5.92969 11.4697C5.78904 11.6103 5.71002 11.8011 5.71002 12C5.71002 12.1989 5.78904 12.3897 5.92969 12.5303C6.07034 12.671 6.26111 12.75 6.46002 12.75H8.71002V15.75L6.05002 19.57C5.97954 19.6879 5.94233 19.8227 5.94233 19.96C5.94233 20.0973 5.97954 20.2321 6.05002 20.35C6.11258 20.4709 6.2073 20.5723 6.32375 20.6428C6.4402 20.7134 6.57386 20.7505 6.71002 20.75H17.54C17.7389 20.75 17.9297 20.671 18.0704 20.5303C18.211 20.3897 18.29 20.1989 18.29 20C18.29 19.8011 18.211 19.6103 18.0704 19.4697C17.9297 19.329 17.7389 19.25 17.54 19.25Z" fill="#FF7A00"/>
</svg>
