<svg width="25" height="25" viewBox="0 0 25 25" fill="none" xmlns="http://www.w3.org/2000/svg">
<path fill-rule="evenodd" clip-rule="evenodd" d="M4.99526 16.0411C5.92579 15.1105 7.18785 14.5878 8.50381 14.5878H16.4427C17.7587 14.5878 19.0208 15.1105 19.9513 16.0411C20.8818 16.9716 21.4046 18.2336 21.4046 19.5496V21.5343C21.4046 22.0824 20.9603 22.5267 20.4122 22.5267C19.8641 22.5267 19.4198 22.0824 19.4198 21.5343V19.5496C19.4198 18.76 19.1062 18.0028 18.5479 17.4445C17.9896 16.8862 17.2323 16.5725 16.4427 16.5725H8.50381C7.71423 16.5725 6.957 16.8862 6.39868 17.4445C5.84037 18.0028 5.52671 18.76 5.52671 19.5496V21.5343C5.52671 22.0824 5.08241 22.5267 4.53434 22.5267C3.98627 22.5267 3.54198 22.0824 3.54198 21.5343V19.5496C3.54198 18.2336 4.06474 16.9716 4.99526 16.0411Z" fill="#8F9BB3"/>
<path fill-rule="evenodd" clip-rule="evenodd" d="M12.4733 4.66412C10.8291 4.66412 9.49618 5.99701 9.49618 7.64121C9.49618 9.28542 10.8291 10.6183 12.4733 10.6183C14.1175 10.6183 15.4504 9.28542 15.4504 7.64121C15.4504 5.99701 14.1175 4.66412 12.4733 4.66412ZM7.51144 7.64121C7.51144 4.90087 9.73293 2.67938 12.4733 2.67938C15.2136 2.67938 17.4351 4.90087 17.4351 7.64121C17.4351 10.3816 15.2136 12.603 12.4733 12.603C9.73293 12.603 7.51144 10.3816 7.51144 7.64121Z" fill="#8F9BB3"/>
</svg>
