<svg width="22" height="22" viewBox="0 0 22 22" fill="none" xmlns="http://www.w3.org/2000/svg">
<g clip-path="url(#clip0_282_1997)">
<path d="M10.9205 -0.0262321C10.8847 -0.0197702 10.8493 -0.0110085 10.8147 -1.34297e-06C10.6237 0.0428155 10.4534 0.150549 10.3329 0.304842C10.2124 0.459134 10.1491 0.650437 10.1538 0.846152V1.69231H2.53846C1.86522 1.69231 1.21955 1.95975 0.743498 2.4358C0.267444 2.91186 0 3.55753 0 4.23077L0 15.2308C0 16.632 1.13723 17.7692 2.53846 17.7692H10.1538V18.0865L5.55246 20.3872C5.34914 20.4854 5.19315 20.6603 5.11881 20.8735C5.04447 21.0867 5.05786 21.3207 5.15604 21.524C5.25422 21.7274 5.42915 21.8833 5.64234 21.9577C5.85553 22.032 6.08953 22.0186 6.29285 21.9205L10.1538 19.9904V20.3077C10.1538 20.5321 10.243 20.7473 10.4017 20.906C10.5604 21.0647 10.7756 21.1538 11 21.1538C11.2244 21.1538 11.4396 21.0647 11.5983 20.906C11.757 20.7473 11.8462 20.5321 11.8462 20.3077V19.9904L15.7072 21.9205C15.9105 22.0186 16.1445 22.032 16.3577 21.9577C16.5709 21.8833 16.7458 21.7274 16.844 21.524C16.9421 21.3207 16.9555 21.0867 16.8812 20.8735C16.8068 20.6603 16.6509 20.4854 16.4475 20.3872L11.8462 18.0865V17.7692H19.4615C20.8628 17.7692 22 16.632 22 15.2308V4.23077C22 3.55753 21.7326 2.91186 21.2565 2.4358C20.7804 1.95975 20.1348 1.69231 19.4615 1.69231H11.8462V0.846152C11.8504 0.725828 11.829 0.605976 11.7832 0.494606C11.7375 0.383236 11.6685 0.282911 11.5809 0.200336C11.4932 0.11776 11.389 0.0548341 11.2751 0.0157628C11.1612 -0.0233085 11.0403 -0.0376256 10.9205 -0.0262321ZM1.69231 4.23077H20.3077V15.2308H1.69231V4.23077ZM17.6635 5.07692C17.4739 5.0973 17.2968 5.18108 17.1608 5.31469L14.3846 8.09177L12.4545 6.16C12.3621 6.06515 12.2487 5.99333 12.1234 5.95031C11.9982 5.90728 11.8646 5.89426 11.7334 5.91229C11.6022 5.93031 11.477 5.97888 11.368 6.05409C11.259 6.1293 11.1692 6.22905 11.1058 6.34531L8.59354 10.7352L7.56208 8.14338C7.51199 8.00956 7.42883 7.89061 7.32035 7.79761C7.21187 7.7046 7.08161 7.64059 6.94171 7.61153C6.80181 7.58247 6.65683 7.58931 6.52029 7.63141C6.38374 7.67351 6.26009 7.74951 6.16085 7.85231L3.62238 10.3908C3.54238 10.4707 3.4789 10.5656 3.43558 10.6701C3.39226 10.7746 3.36995 10.8866 3.36991 10.9997C3.36987 11.1128 3.39211 11.2248 3.43536 11.3293C3.4786 11.4338 3.54201 11.5288 3.62196 11.6088C3.70191 11.6888 3.79684 11.7523 3.90132 11.7956C4.0058 11.8389 4.11779 11.8612 4.23089 11.8613C4.344 11.8613 4.456 11.8391 4.56051 11.7958C4.66503 11.7526 4.75999 11.6892 4.84 11.6092L6.45277 9.99646L7.66954 13.0105C7.72697 13.1616 7.8265 13.2932 7.95637 13.3895C8.08623 13.4859 8.24098 13.543 8.4023 13.5541C8.56362 13.5652 8.72475 13.5299 8.86661 13.4523C9.00847 13.3747 9.12513 13.2581 9.20277 13.1162L12.0323 8.17131L13.7771 9.91692C13.856 9.99855 13.9505 10.0635 14.055 10.1078C14.1596 10.1521 14.2719 10.175 14.3855 10.175C14.499 10.175 14.6114 10.1521 14.7159 10.1078C14.8204 10.0635 14.9149 9.99855 14.9938 9.91692L18.3785 6.53231C18.5121 6.40856 18.6023 6.24499 18.6356 6.0659C18.6688 5.88681 18.6434 5.70177 18.5631 5.53828C18.4828 5.37479 18.3518 5.24159 18.1898 5.15847C18.0277 5.07535 17.8431 5.04675 17.6635 5.07692Z" fill="#FF7A00"/>
</g>
<defs>
<clipPath id="clip0_282_1997">
<rect width="22" height="22" fill="white"/>
</clipPath>
</defs>
</svg>
