<svg xmlns="http://www.w3.org/2000/svg" viewBox="0 0 64 64" id="subscription"><circle cx="12" cy="11" r="1" fill="#ff7a00" class="color000000 svgShape"></circle><circle cx="17" cy="11" r="1" fill="#ff7a00" class="color000000 svgShape"></circle><circle cx="22" cy="11" r="1" fill="#ff7a00" class="color000000 svgShape"></circle><path d="M53 16H7a1 1 0 0 1 0-2H53a1 1 0 0 1 0 2zM37 44a1 1 0 0 1-1-1V39a1 1 0 0 1 2 0v4A1 1 0 0 1 37 44zM55.11 53h0a1 1 0 0 1 .12 1.28 14.52 14.52 0 0 1-3.68 3.52A.94.94 0 0 1 51 58a1 1 0 0 1-.55-1.83 12.76 12.76 0 0 0 3.15-3A1 1 0 0 1 55.11 53z" fill="#ff7a00" class="color000000 svgShape"></path><path d="M58 40.64v5.15a14.34 14.34 0 0 1-.73 4.54 1 1 0 0 1-1.65.37h0a1 1 0 0 1-.23-1A12.85 12.85 0 0 0 56 45.79V40.64A1.59 1.59 0 0 0 54.66 39a1.48 1.48 0 0 0-1.17.38A1.51 1.51 0 0 0 53 40.5a1 1 0 0 1-2 0V38.64A1.59 1.59 0 0 0 49.66 37a1.48 1.48 0 0 0-1.17.38A1.51 1.51 0 0 0 48 38.5a1 1 0 0 1-2 0v-.86A1.59 1.59 0 0 0 44.66 36a1.48 1.48 0 0 0-1.17.38A1.51 1.51 0 0 0 43 37.5a1 1 0 0 1-2 0v-9A1.5 1.5 0 0 0 39.34 27 1.59 1.59 0 0 0 38 28.64V39a1 1 0 0 1-2 0 3 3 0 0 0-3.1-3 1 1 0 0 0-.9 1v8.79a12.47 12.47 0 0 0 5.55 10.38 1 1 0 0 1-1.1 1.66 14.43 14.43 0 0 1-6.45-12V37a3 3 0 0 1 2.84-3A5 5 0 0 1 36 35V28.64A3.61 3.61 0 0 1 39.14 25 3.49 3.49 0 0 1 43 28.5v5.84A3.59 3.59 0 0 1 44.86 34a3.5 3.5 0 0 1 2.58 1.65 3.47 3.47 0 0 1 5.36 1.77A3.57 3.57 0 0 1 54.86 37 3.61 3.61 0 0 1 58 40.64zM7 28H7a1 1 0 0 1-1-1V10a4 4 0 0 1 4-4H29a1 1 0 0 1 0 2H10a2 2 0 0 0-2 2V27A1 1 0 0 1 7 28z" fill="#ff7a00" class="color000000 svgShape"></path><path d="M32,43a1,1,0,0,1-1,1H10a4,4,0,0,1-4-4V31a1,1,0,0,1,1-1H7a1,1,0,0,1,1,1v9a2,2,0,0,0,2,2H31A1,1,0,0,1,32,43Z" fill="#ff7a00" class="color000000 svgShape"></path><rect width="2" height="2" x="32" y="6" rx="1" ry="1" fill="#ff7a00" class="color000000 svgShape"></rect><path d="M54,10V38.5a1,1,0,0,1-2,0V10a2,2,0,0,0-2-2H37a1,1,0,0,1-1-1h0a1,1,0,0,1,1-1H50A4,4,0,0,1,54,10Z" fill="#ff7a00" class="color000000 svgShape"></path><path d="M45.31 29H42a1 1 0 0 1 0-2h3.36a1.83 1.83 0 0 0 1.22-.46 1.42 1.42 0 0 0 .47-1A1.6 1.6 0 0 0 45.31 24H36.69a1.83 1.83 0 0 0-1.22.46 1.42 1.42 0 0 0-.47 1A1.6 1.6 0 0 0 36.69 27h.39a1 1 0 0 1 0 2h-.39A3.61 3.61 0 0 1 33 25.5 3.46 3.46 0 0 1 34.11 23a3.81 3.81 0 0 1 2.58-1h8.62A3.61 3.61 0 0 1 49 25.5 3.46 3.46 0 0 1 47.89 28 3.81 3.81 0 0 1 45.31 29zM29 31H12a1 1 0 0 1-1-1V20a1 1 0 0 1 1-1H29a1 1 0 0 1 1 1V30A1 1 0 0 1 29 31zM13 29H28V21H13zM28 35H13a1 1 0 0 1 0-2H28a1 1 0 0 1 0 2zM22 39H13a1 1 0 0 1 0-2h9a1 1 0 0 1 0 2z" fill="#ff7a00" class="color000000 svgShape"></path></svg>