<svg width="16" height="16" viewBox="0 0 16 16" fill="none" xmlns="http://www.w3.org/2000/svg">
<path d="M7.99957 12C7.91682 12 7.83537 11.9793 7.76257 11.94L1.26251 8.43994L1.73652 7.55993L7.99957 10.932L14.2626 7.55993L14.7366 8.43994L8.23658 11.94C8.16378 11.9793 8.08233 12 7.99957 12Z" fill="#FF7A00" stroke="#FF7A00" stroke-width="0.5"/>
<path d="M7.99958 15C7.91682 15 7.83537 14.9794 7.76257 14.94L1.26252 11.44L1.73652 10.56L7.99958 13.932L14.2626 10.56L14.7366 11.44L8.23658 14.94C8.16378 14.9794 8.08233 15 7.99958 15ZM7.99958 8.99995C7.91682 8.99993 7.83537 8.97931 7.76257 8.93994L1.26252 5.43991C1.18314 5.39707 1.11683 5.33355 1.07062 5.25609C1.0244 5.17863 1 5.09011 1 4.99991C1 4.90971 1.0244 4.82119 1.07062 4.74373C1.11683 4.66627 1.18314 4.60275 1.26252 4.55991L7.76257 1.05987C7.83539 1.02058 7.91683 1 7.99958 1C8.08232 1 8.16376 1.02058 8.23658 1.05987L14.7366 4.55991C14.816 4.60275 14.8823 4.66627 14.9285 4.74373C14.9748 4.82119 14.9992 4.90971 14.9992 4.99991C14.9992 5.09011 14.9748 5.17863 14.9285 5.25609C14.8823 5.33355 14.816 5.39707 14.7366 5.43991L8.23658 8.93994C8.16378 8.97931 8.08233 8.99993 7.99958 8.99995ZM2.55453 4.99991L7.99958 7.93194L13.4446 4.99991L7.99958 2.06788L2.55453 4.99991Z" fill="#FF7A00" stroke="#FF7A00" stroke-width="0.5"/>
</svg>
