<svg width="20" height="17" viewBox="0 0 20 17" fill="none" xmlns="http://www.w3.org/2000/svg">
<path d="M9.51486 10.6351C9.51486 11.0493 9.85065 11.3851 10.2649 11.3851C10.6791 11.3851 11.0149 11.0493 11.0149 10.6351H9.51486ZM10.7952 0.852803C10.5023 0.55991 10.0274 0.55991 9.73453 0.852803L4.96156 5.62577C4.66867 5.91867 4.66867 6.39354 4.96156 6.68643C5.25445 6.97933 5.72933 6.97933 6.02222 6.68643L10.2649 2.44379L14.5075 6.68643C14.8004 6.97933 15.2753 6.97933 15.5682 6.68643C15.8611 6.39354 15.8611 5.91867 15.5682 5.62577L10.7952 0.852803ZM11.0149 10.6351V1.38313H9.51486V10.6351H11.0149Z" fill="#FF7A00"/>
<path d="M1.72464 6.0091V12.6169C1.72464 14.2737 3.06779 15.6169 4.72464 15.6169H15.4493C17.1061 15.6169 18.4493 14.2737 18.4493 12.6169V6.0091" stroke="#FF7A00" stroke-width="1.5" stroke-linecap="round"/>
</svg>
