<svg width="24" height="25" viewBox="0 0 24 25" fill="none" xmlns="http://www.w3.org/2000/svg">
<path d="M22 23L17.1745 18.1745M17.1745 18.1745C17.9999 17.3491 18.6547 16.3692 19.1014 15.2907C19.5481 14.2122 19.778 13.0563 19.778 11.889C19.778 10.7217 19.5481 9.5658 19.1014 8.48734C18.6547 7.40887 17.9999 6.42895 17.1745 5.60353C16.3491 4.77811 15.3692 4.12335 14.2907 3.67664C13.2122 3.22992 12.0563 3 10.889 3C9.72169 3 8.5658 3.22992 7.48734 3.67664C6.40887 4.12335 5.42895 4.77811 4.60353 5.60353C2.93652 7.27055 2 9.5315 2 11.889C2 14.2465 2.93652 16.5075 4.60353 18.1745C6.27055 19.8415 8.5315 20.778 10.889 20.778C13.2465 20.778 15.5075 19.8415 17.1745 18.1745Z" stroke="white" stroke-width="2.5" stroke-linecap="round" stroke-linejoin="round"/>
</svg>
